<?xml version="1.0" encoding="UTF-8" standalone="no"?>
<!-- Created with Inkscape (http://www.inkscape.org/) -->

<svg
   width="39mm"
   height="39mm"
   viewBox="0 0 39 39"
   version="1.1"
   id="svg5"
   xml:space="preserve"
   inkscape:version="1.2.2 (b0a8486541, 2022-12-01)"
   sodipodi:docname="tbdnologo.svg"
   xmlns:inkscape="http://www.inkscape.org/namespaces/inkscape"
   xmlns:sodipodi="http://sodipodi.sourceforge.net/DTD/sodipodi-0.dtd"
   xmlns="http://www.w3.org/2000/svg"
   xmlns:svg="http://www.w3.org/2000/svg"><sodipodi:namedview
     id="namedview7"
     pagecolor="#ffffff"
     bordercolor="#000000"
     borderopacity="0.25"
     inkscape:showpageshadow="2"
     inkscape:pageopacity="0.0"
     inkscape:pagecheckerboard="0"
     inkscape:deskcolor="#d1d1d1"
     inkscape:document-units="mm"
     showgrid="false"
     inkscape:zoom="1"
     inkscape:cx="-120"
     inkscape:cy="113.5"
     inkscape:window-width="1920"
     inkscape:window-height="904"
     inkscape:window-x="0"
     inkscape:window-y="31"
     inkscape:window-maximized="1"
     inkscape:current-layer="layer1" /><defs
     id="defs2" /><g
     inkscape:label="Layer 1"
     inkscape:groupmode="layer"
     id="layer1"><path
       style="fill:#000000;stroke-width:0.160262"
       d="m 9.9907633,31.96089 c -1.380353,-0.487546 -2.577897,-2.183698 -2.577897,-3.651229 0,-1.993902 1.932516,-3.926417 3.9264167,-3.926417 1.993901,0 3.926416,1.932515 3.926416,3.926417 0,1.508316 -1.199021,3.168767 -2.643621,3.660992 -0.948118,0.323056 -1.696895,0.320279 -2.6313147,-0.0098 z M 12.24501,30.949911 c 0.828814,-0.230208 1.687609,-1.229257 1.820932,-2.118316 0.319893,-2.1332 -1.479995,-3.739295 -3.56216,-3.178627 -1.9380197,0.521855 -2.5851137,3.208559 -1.1157847,4.632688 0.7959997,0.771514 1.7077027,0.983486 2.8570127,0.664255 z M 10.201423,29.44752 c -0.7581057,-0.758108 -0.7581057,-1.517611 0,-2.275719 0.423323,-0.423322 0.677186,-0.544891 1.13786,-0.544891 0.839155,0 1.68275,0.843595 1.68275,1.682751 0,0.839155 -0.843595,1.68275 -1.68275,1.68275 -0.460674,0 -0.714537,-0.121569 -1.13786,-0.544891 z m 7.307943,2.419955 c 0,-0.469672 0.283559,-0.753231 0.753231,-0.753231 0.34226,0 0.368602,-0.06643 0.368602,-0.929519 0,-1.004392 0.177543,-1.314148 0.753231,-1.314148 0.314418,0 0.368603,0.08245 0.368603,0.560917 0,0.534206 0.02671,0.560917 0.560916,0.560917 0.478464,0 0.560917,0.05418 0.560917,0.368602 0,0.469672 -0.283559,0.753231 -0.753231,0.753231 -0.277787,0 -0.368602,0.09082 -0.368602,0.368602 0,0.575688 -0.309756,0.753231 -1.314148,0.753231 -0.863091,0 -0.929519,-0.02634 -0.929519,-0.368602 z m 4.487333,-0.560917 c 0,-1.004392 0.177543,-1.314147 0.753231,-1.314147 0.277787,0 0.368603,-0.09082 0.368603,-0.368603 0,-0.469671 0.283559,-0.753231 0.75323,-0.753231 0.358207,0 0.368603,0.04204 0.368603,1.490436 0,0.945545 -0.07031,1.560744 -0.192314,1.68275 -0.105773,0.105773 -0.610598,0.192314 -1.121834,0.192314 h -0.929519 z m 3.3655,0.560917 c 0,-0.202731 0.08654,-0.455144 0.192314,-0.560917 0.105773,-0.105773 0.358186,-0.192314 0.560917,-0.192314 0.277787,0 0.368602,0.09082 0.368602,0.368602 0,0.202732 -0.08654,0.455144 -0.192314,0.560917 -0.105773,0.105773 -0.358185,0.192314 -0.560917,0.192314 -0.277786,0 -0.368602,-0.09081 -0.368602,-0.368602 z m 2.243667,0 c 0,-0.202731 0.08654,-0.455144 0.192314,-0.560917 0.105773,-0.105773 0.358185,-0.192314 0.560917,-0.192314 0.277786,0 0.368602,-0.09082 0.368602,-0.368602 0,-0.575688 0.309756,-0.753231 1.314148,-0.753231 h 0.929519 v 0.929519 c 0,1.004391 -0.177543,1.314147 -0.753231,1.314147 -0.314418,0 -0.368603,-0.08245 -0.368603,-0.560916 0,-0.534206 -0.02671,-0.560917 -0.560916,-0.560917 -0.478464,0 -0.560917,0.05419 -0.560917,0.368602 0,0.202732 -0.08654,0.455144 -0.192314,0.560917 -0.105773,0.105773 -0.358186,0.192314 -0.560917,0.192314 -0.277787,0 -0.368602,-0.09081 -0.368602,-0.368602 z M 16.387533,29.623808 c 0,-0.469671 0.283559,-0.753231 0.753231,-0.753231 0.277787,0 0.368602,0.09082 0.368602,0.368603 0,0.469671 -0.283559,0.753231 -0.753231,0.753231 -0.277787,0 -0.368602,-0.09082 -0.368602,-0.368603 z m 11.218333,0 c 0,-0.202731 0.08654,-0.455144 0.192314,-0.560916 0.105773,-0.105773 0.358185,-0.192315 0.560917,-0.192315 0.277786,0 0.368602,0.09082 0.368602,0.368603 0,0.202731 -0.08654,0.455143 -0.192314,0.560916 -0.105773,0.105773 -0.358186,0.192315 -0.560917,0.192315 -0.277787,0 -0.368602,-0.09082 -0.368602,-0.368603 z m -6.731,-1.121833 c 0,-0.469672 0.283559,-0.753231 0.753231,-0.753231 0.314418,0 0.368602,-0.08245 0.368602,-0.560917 0,-0.534206 -0.02671,-0.560917 -0.560916,-0.560917 -0.478464,0 -0.560917,0.05419 -0.560917,0.368603 0,0.63745 -0.28822,0.753231 -1.875064,0.753231 H 17.509366 V 26.62691 25.505077 H 16.948449 16.387533 V 24.383244 23.26141 h -1.121834 c -1.063767,0 -1.121833,-0.01908 -1.121833,-0.368602 0,-0.202731 0.08654,-0.455144 0.192314,-0.560917 0.105773,-0.105773 0.358186,-0.192314 0.560917,-0.192314 0.277787,0 0.368602,-0.09082 0.368602,-0.368602 0,-0.469672 0.28356,-0.753231 0.753231,-0.753231 0.277788,0 0.368603,-0.09082 0.368603,-0.368603 0,-0.469672 0.283559,-0.753231 0.753231,-0.753231 0.277787,0 0.368602,-0.09081 0.368602,-0.368602 0,-0.469672 0.283559,-0.753231 0.753231,-0.753231 0.277787,0 0.368602,-0.09081 0.368602,-0.368603 0,-0.469671 0.283559,-0.75323 0.753231,-0.75323 0.277787,0 0.368603,0.09081 0.368603,0.368602 0,0.469672 -0.283559,0.753231 -0.753231,0.753231 -0.349524,0 -0.368603,0.05807 -0.368603,1.121833 v 1.121834 h 0.560917 c 0.478464,0 0.560917,-0.05419 0.560917,-0.368603 0,-0.469672 0.283559,-0.753231 0.753231,-0.753231 0.277786,0 0.368602,-0.09081 0.368602,-0.368602 0,-0.469672 0.283559,-0.753231 0.753231,-0.753231 0.277787,0 0.368602,-0.09081 0.368602,-0.368603 0,-0.672509 0.261057,-0.75323 2.435981,-0.75323 h 2.051352 v 1.490435 c 0,1.586845 -0.115781,1.875065 -0.753231,1.875065 -0.314417,0 -0.368602,0.08245 -0.368602,0.560916 v 0.560917 h 1.121833 1.121834 v -2.051352 c 0,-1.381814 0.06277,-2.114122 0.192314,-2.243667 0.122006,-0.122006 0.737205,-0.192314 1.68275,-0.192314 1.448396,0 1.490436,0.0104 1.490436,0.368602 0,0.469672 -0.28356,0.753231 -0.753231,0.753231 -0.277787,0 -0.368603,0.09082 -0.368603,0.368602 0,0.469672 -0.283559,0.753231 -0.753231,0.753231 -0.314417,0 -0.368602,0.08245 -0.368602,0.560917 0,0.534206 0.02671,0.560917 0.560917,0.560917 0.478463,0 0.560916,-0.05419 0.560916,-0.368603 0,-0.469672 0.28356,-0.753231 0.753231,-0.753231 0.365431,0 0.368603,0.01765 0.368603,2.051353 0,2.174924 -0.08072,2.435981 -0.753231,2.435981 -0.349524,0 -0.368603,-0.05807 -0.368603,-1.121834 v -1.121833 h -0.560916 -0.560917 v 1.490436 c 0,1.586844 -0.115781,1.875064 -0.753231,1.875064 -0.349523,0 -0.368602,-0.05807 -0.368602,-1.121833 V 23.26141 h -2.804584 -2.804583 v 0.368603 c 0,0.469671 -0.283559,0.753231 -0.753231,0.753231 -0.34226,0 -0.368602,-0.06643 -0.368602,-0.929519 0,-1.004392 0.177543,-1.314148 0.753231,-1.314148 0.34226,0 0.368602,-0.06643 0.368602,-0.929519 0,-1.004392 0.177543,-1.314148 0.753231,-1.314148 0.314418,0 0.368603,-0.08245 0.368603,-0.560916 0,-0.534207 -0.02671,-0.560917 -0.560917,-0.560917 -0.478464,0 -0.560917,0.05418 -0.560917,0.368602 0,0.469672 -0.283559,0.753231 -0.753231,0.753231 -0.277786,0 -0.368602,0.09081 -0.368602,0.368603 0,0.469672 -0.283559,0.753231 -0.753231,0.753231 -0.358206,0 -0.368602,0.04204 -0.368602,1.490435 0,1.586845 -0.115782,1.875065 -0.753231,1.875065 -0.349524,0 -0.368603,0.05807 -0.368603,1.121833 v 1.121833 h 1.121834 c 1.063767,0 1.121833,-0.01908 1.121833,-0.368602 0,-0.575688 0.309756,-0.753231 1.314148,-0.753231 0.863092,0 0.929519,-0.02634 0.929519,-0.368602 0,-0.469672 0.283559,-0.753231 0.75323,-0.753231 0.277787,0 0.368603,0.09081 0.368603,0.368602 0,0.469672 -0.28356,0.753231 -0.753231,0.753231 -0.314418,0 -0.368602,0.08245 -0.368602,0.560917 0,0.534206 0.02671,0.560916 0.560916,0.560916 0.478464,0 0.560917,-0.05418 0.560917,-0.368602 0,-0.469671 0.283559,-0.753231 0.753231,-0.753231 0.34226,0 0.368602,0.06643 0.368602,0.929519 0,0.511236 -0.08654,1.016061 -0.192314,1.121834 -0.122006,0.122005 -0.737205,0.192314 -1.68275,0.192314 -1.448396,0 -1.490436,0.0104 -1.490436,0.368602 0,0.469672 -0.283559,0.753231 -0.753231,0.753231 -0.277786,0 -0.368602,-0.09081 -0.368602,-0.368602 z m -2.243667,-4.679648 c 0,-0.534206 -0.02671,-0.560917 -0.560916,-0.560917 -0.534207,0 -0.560917,0.02671 -0.560917,0.560917 0,0.534206 0.02671,0.560917 0.560917,0.560917 0.534206,0 0.560916,-0.02671 0.560916,-0.560917 z M 17.509366,21.57866 c 0,-0.534206 -0.02671,-0.560916 -0.560917,-0.560916 -0.534206,0 -0.560916,0.02671 -0.560916,0.560916 0,0.534206 0.02671,0.560917 0.560916,0.560917 0.534207,0 0.560917,-0.02671 0.560917,-0.560917 z m 6.731,-0.929519 c 0,-0.469672 0.283559,-0.753231 0.753231,-0.753231 0.314418,0 0.368602,-0.08245 0.368602,-0.560916 0,-0.534207 -0.02671,-0.560917 -0.560917,-0.560917 -0.478463,0 -0.560916,0.05418 -0.560916,0.368602 0,0.202732 -0.08654,0.455144 -0.192314,0.560917 -0.105773,0.105773 -0.358186,0.192314 -0.560917,0.192314 -0.314418,0 -0.368602,0.08245 -0.368602,0.560917 0,0.534206 0.02671,0.560917 0.560916,0.560917 0.478464,0 0.560917,-0.05419 0.560917,-0.368603 z m 1.121833,7.852834 c 0,-0.202732 0.08654,-0.455144 0.192314,-0.560917 0.105773,-0.105773 0.358186,-0.192314 0.560917,-0.192314 0.277787,0 0.368602,-0.09082 0.368602,-0.368603 0,-0.672508 0.261057,-0.753231 2.435981,-0.753231 h 2.051353 v 0.92952 c 0,1.004391 -0.177543,1.314147 -0.753231,1.314147 -0.314418,0 -0.368603,-0.08245 -0.368603,-0.560916 v -0.560917 h -1.121833 c -1.063767,0 -1.121833,0.01908 -1.121833,0.368602 0,0.575688 -0.309756,0.753231 -1.314148,0.753231 -0.863092,0 -0.929519,-0.02634 -0.929519,-0.368602 z M 10.778366,22.892808 c 0,-0.469672 0.283559,-0.753231 0.753231,-0.753231 0.277787,0 0.368603,0.09082 0.368603,0.368602 0,0.469672 -0.283559,0.753231 -0.753231,0.753231 -0.277788,0 -0.368603,-0.09082 -0.368603,-0.368602 z m 2.243667,-1.68275 c 0,-0.511236 0.08654,-1.016061 0.192314,-1.121833 0.105773,-0.105773 0.610598,-0.192315 1.121833,-0.192315 h 0.929519 v -0.560916 c 0,-0.534207 -0.02671,-0.560917 -0.560916,-0.560917 -0.478463,0 -0.560917,-0.05418 -0.560917,-0.368603 0,-0.575688 0.309756,-0.75323 1.314148,-0.75323 h 0.929519 v -2.051353 c 0,-2.174924 0.08072,-2.435981 0.753231,-2.435981 0.277787,0 0.368602,-0.09082 0.368602,-0.368602 0,-0.575688 0.309756,-0.753231 1.314148,-0.753231 h 0.929519 v -0.929519 c 0,-1.004392 0.177543,-1.3141483 0.753231,-1.3141483 0.277786,0 0.368602,-0.09081 0.368602,-0.368602 0,-0.469672 0.283559,-0.753231 0.753231,-0.753231 0.277787,0 0.368602,0.09081 0.368602,0.368602 0,0.469672 -0.283559,0.753231 -0.753231,0.753231 -0.314418,0 -0.368602,0.08245 -0.368602,0.5609173 0,0.534206 0.02671,0.560916 0.560917,0.560916 0.478463,0 0.560916,0.05418 0.560916,0.368603 0,0.469672 -0.283559,0.753231 -0.753231,0.753231 -0.277786,0 -0.368602,0.09081 -0.368602,0.368602 0,0.469672 -0.283559,0.753231 -0.753231,0.753231 -0.277787,0 -0.368602,0.09081 -0.368602,0.368602 0,0.469672 -0.283559,0.753231 -0.753231,0.753231 -0.314419,0 -0.368603,-0.08245 -0.368603,-0.560916 0,-0.534207 -0.02671,-0.560917 -0.560916,-0.560917 h -0.560917 v 1.68275 1.68275 h 0.560917 c 0.478463,0 0.560916,-0.05418 0.560916,-0.368602 0,-0.469672 0.283559,-0.753231 0.753231,-0.753231 0.277787,0 0.368603,0.09082 0.368603,0.368602 0,0.469672 -0.283559,0.753231 -0.753231,0.753231 -0.277788,0 -0.368603,0.09081 -0.368603,0.368603 0,0.202731 -0.08654,0.455143 -0.192314,0.560916 -0.105773,0.105773 -0.358185,0.192315 -0.560917,0.192315 -0.277787,0 -0.368602,0.09081 -0.368602,0.368602 0,0.202731 -0.08654,0.455144 -0.192314,0.560917 -0.105773,0.105772 -0.358186,0.192314 -0.560917,0.192314 -0.277787,0 -0.368602,0.09082 -0.368602,0.368602 0,0.469672 -0.283559,0.753231 -0.753231,0.753231 -0.277787,0 -0.368603,0.09081 -0.368603,0.368603 0,0.469672 -0.283559,0.753231 -0.75323,0.753231 -0.277788,0 -0.368603,0.09081 -0.368603,0.368602 0,0.202731 -0.08654,0.455144 -0.192314,0.560917 -0.105773,0.105773 -0.358185,0.192314 -0.560917,0.192314 -0.34226,0 -0.368602,-0.06643 -0.368602,-0.929519 z m -3.3654997,-1.68275 c 0,-1.586845 0.115781,-1.875064 0.7532307,-1.875064 0.314419,0 0.368602,0.08245 0.368602,0.560916 v 0.560917 H 11.9002 c 1.063767,0 1.121833,0.01908 1.121833,0.368602 0,0.469672 -0.283559,0.753231 -0.753231,0.753231 -0.277787,0 -0.368602,0.09081 -0.368602,0.368603 0,0.575688 -0.309756,0.753231 -1.314148,0.753231 H 9.6565333 Z M 20.874866,16.722724 c 0,-1.004391 0.177543,-1.314147 0.753231,-1.314147 0.34226,0 0.368602,0.06643 0.368602,0.929519 0,1.004392 -0.177543,1.314148 -0.753231,1.314148 -0.34226,0 -0.368602,-0.06643 -0.368602,-0.92952 z m -10.8841027,-0.4675 c -1.380353,-0.487547 -2.577897,-2.1837 -2.577897,-3.651231 0,-1.508315 1.199022,-3.1687683 2.6436217,-3.6609923 0.982345,-0.334719 1.583245,-0.334719 2.56559,0 1.4446,0.492224 2.643621,2.1526773 2.643621,3.6609923 0,1.508316 -1.199021,3.168769 -2.643621,3.660993 -0.948118,0.323057 -1.696895,0.320278 -2.6313147,-0.0098 z M 12.24501,15.244245 c 0.828814,-0.230209 1.687609,-1.229258 1.820932,-2.118316 0.319893,-2.1332 -1.479995,-3.7392963 -3.56216,-3.1786273 C 8.5657623,10.469156 7.9186683,13.15586 9.3879973,14.579989 10.183997,15.351503 11.0957,15.563474 12.24501,15.244245 Z m -2.043587,-1.502392 c -0.7581057,-0.758107 -0.7581057,-1.517612 0,-2.275719 0.758107,-0.758107 1.517613,-0.758107 2.275719,0 0.758107,0.758107 0.758107,1.517612 0,2.275719 -0.758106,0.758107 -1.517612,0.758107 -2.275719,0 z m 15.495007,2.513371 c -1.380353,-0.487547 -2.577897,-2.1837 -2.577897,-3.651231 0,-1.993901 1.932514,-3.9264163 3.926416,-3.9264163 1.993902,0 3.926417,1.9325153 3.926417,3.9264163 0,1.508316 -1.199022,3.168769 -2.643623,3.660993 -0.948117,0.323057 -1.696895,0.320278 -2.631313,-0.0098 z m 2.254246,-1.010979 c 0.828815,-0.230209 1.687609,-1.229258 1.820932,-2.118316 0.319892,-2.1332 -1.479994,-3.7392963 -3.56216,-3.1786273 -1.93802,0.5218543 -2.585115,3.2085583 -1.115785,4.6326873 0.796,0.771514 1.707702,0.983485 2.857013,0.664256 z M 25.90709,13.741853 c -0.758108,-0.758107 -0.758108,-1.517612 0,-2.275719 0.758107,-0.758107 1.517611,-0.758107 2.275719,0 0.423322,0.423322 0.54489,0.677185 0.54489,1.137859 0,0.460675 -0.121568,0.714538 -0.54489,1.13786 -0.758108,0.758107 -1.517612,0.758107 -2.275719,0 z m -9.519557,-3.189212 c 0,-0.9455453 0.07031,-1.5607443 0.192314,-1.6827503 0.122006,-0.122006 0.737205,-0.192314 1.68275,-0.192314 1.448396,0 1.490436,0.0104 1.490436,0.368602 0,0.575688 -0.309756,0.753231 -1.314148,0.753231 h -0.929519 v 0.9295193 c 0,1.004392 -0.177543,1.314148 -0.753231,1.314148 -0.358205,0 -0.368602,-0.04204 -0.368602,-1.490436 z"
       id="path366" /></g></svg>
