<?xml version="1.0" encoding="UTF-8" standalone="no"?>
<!-- Created with Inkscape (http://www.inkscape.org/) -->

<svg
   width="39mm"
   height="39mm"
   viewBox="0 0 39 39"
   version="1.1"
   id="svg5"
   inkscape:version="1.2.2 (b0a8486541, 2022-12-01)"
   sodipodi:docname="tbdqr.svg"
   xml:space="preserve"
   inkscape:export-filename="tbdqr2.png"
   inkscape:export-xdpi="96"
   inkscape:export-ydpi="96"
   xmlns:inkscape="http://www.inkscape.org/namespaces/inkscape"
   xmlns:sodipodi="http://sodipodi.sourceforge.net/DTD/sodipodi-0.dtd"
   xmlns="http://www.w3.org/2000/svg"
   xmlns:svg="http://www.w3.org/2000/svg"><sodipodi:namedview
     id="namedview7"
     pagecolor="#ffffff"
     bordercolor="#000000"
     borderopacity="0.25"
     inkscape:showpageshadow="2"
     inkscape:pageopacity="0.0"
     inkscape:pagecheckerboard="0"
     inkscape:deskcolor="#d1d1d1"
     inkscape:document-units="mm"
     showgrid="false"
     inkscape:zoom="1"
     inkscape:cx="101"
     inkscape:cy="77.5"
     inkscape:window-width="1920"
     inkscape:window-height="904"
     inkscape:window-x="0"
     inkscape:window-y="31"
     inkscape:window-maximized="1"
     inkscape:current-layer="layer1" /><defs
     id="defs2" /><g
     inkscape:label="Layer 1"
     inkscape:groupmode="layer"
     id="layer1"><path
       style="fill:#000000;stroke-width:6.526;stroke-dasharray:none"
       d="m 13.44123,36.266778 c -0.200316,-0.146474 -0.245298,-0.333723 -0.245298,-1.021132 0,-0.914822 0.18618,-1.200506 0.782365,-1.200506 0.283166,0 0.291768,-0.03353 0.291768,-1.137317 v -1.137318 h -0.505474 -0.505474 l -0.01399,0.600251 c -0.0077,0.330141 -0.004,0.725098 0.0081,0.877682 0.03753,0.470559 -0.218733,0.796702 -0.625995,0.796702 -0.510317,0 -0.60291,-0.243062 -0.620917,-1.629951 -0.02146,-1.653031 0.07399,-1.782001 1.318858,-1.782001 h 0.944849 v -0.568656 c 0,-0.545162 -0.01537,-0.568661 -0.371941,-0.568661 -0.511248,0 -0.834967,-0.446402 -0.591403,-0.815535 0.09503,-0.144015 0.339864,-0.275664 0.552577,-0.297118 0.313797,-0.03167 0.395926,-0.108419 0.460292,-0.430249 0.103469,-0.517351 0.295818,-0.731732 0.656529,-0.731732 0.416109,0 0.557631,0.350678 0.557631,1.38175 v 0.892884 h 1.507397 c 1.582057,0 1.904555,0.104239 1.904555,0.615596 0,0.44846 -0.260859,0.521721 -1.857618,0.521721 h -1.554334 v 1.705979 1.705973 h 0.35952 c 0.562387,0 0.777797,0.34318 0.777797,1.239134 0,0.68358 -0.03694,0.801145 -0.307446,0.978388 -0.452607,0.29656 -0.829871,0.06198 -0.829871,-0.51599 0,-0.434682 -0.0041,-0.437843 -0.568658,-0.437843 -0.522323,0 -0.568658,0.02574 -0.568658,0.315922 0,0.298886 -0.386567,0.821395 -0.60769,0.821395 -0.05622,0 -0.212601,-0.08072 -0.347514,-0.179368 z m 4.746261,0.08726 c -0.256636,-0.0977 -0.374856,-0.29518 -0.377171,-0.630068 -0.0022,-0.317627 0.333165,-0.541514 0.811153,-0.541514 0.292091,0 0.324229,-0.04837 0.324229,-0.488045 v -0.488039 l -0.975821,-0.08843 c -0.536702,-0.04863 -1.048494,-0.148739 -1.137318,-0.222454 -0.210207,-0.174457 -0.21815,-1.765044 -0.0099,-1.973341 0.38037,-0.380367 0.985675,-0.0024 0.985675,0.615596 0,0.35437 0.02414,0.370079 0.568659,0.370079 h 0.568658 v -0.985675 c 0,-1.039975 0.109845,-1.28896 0.568659,-1.28896 0.37907,0 0.568659,0.240144 0.568659,0.720304 0,0.409993 0.0096,0.417013 0.568658,0.417013 0.559085,0 0.568659,-0.0071 0.568659,-0.417013 0,-0.48016 0.189587,-0.720304 0.568659,-0.720304 0.379068,0 0.568657,0.240144 0.568657,0.720304 v 0.417013 h 1.705978 1.705973 v -0.568656 c 0,-0.564549 -0.0033,-0.568661 -0.437842,-0.568661 -0.598703,0 -0.699471,-0.245761 -0.699471,-1.705973 0,-1.460213 0.100768,-1.705978 0.699476,-1.705978 0.385777,0 0.437842,-0.03854 0.437842,-0.324229 0,-0.700653 0.173507,-0.813089 1.254753,-0.813089 h 0.99312 l 0.04566,-1.005309 c 0.02512,-0.552919 0.10861,-1.068269 0.185558,-1.145218 0.07695,-0.07695 0.52973,-0.139902 1.006188,-0.139902 1.089785,0 1.190366,0.115492 1.190366,1.36682 v 0.923609 h 0.437843 c 0.479824,0 0.699474,0.25293 0.699474,0.805462 0,0.272875 0.06368,0.322017 0.461083,0.355822 0.575009,0.0489 0.783999,0.334028 0.57733,0.787618 -0.118601,0.260299 -0.237803,0.325733 -0.593415,0.325733 -0.443159,0 -0.444998,0.0024 -0.444998,0.568661 0,0.544513 0.01572,0.568656 0.370079,0.568656 0.47181,0 0.767239,0.295428 0.767239,0.767239 0,0.35437 0.02416,0.370078 0.568656,0.370078 0.559085,0 0.568661,-0.0071 0.568661,-0.417014 0,-0.599973 0.189989,-0.720303 1.137317,-0.720303 0.883389,0 1.137317,0.126964 1.137317,0.568661 0,0.379068 -0.240144,0.568656 -0.720303,0.568656 -0.387531,0 -0.417014,0.02947 -0.417014,0.417019 0,0.527314 -0.192984,0.720298 -0.720303,0.720298 -0.387531,0 -0.417014,0.02947 -0.417014,0.417019 0,0.480155 -0.189589,0.720299 -0.568661,0.720299 -0.379068,0 -0.568656,-0.240144 -0.568656,-0.720299 v -0.417019 h -1.137318 -1.137317 v 0.568662 0.568656 h 0.856462 c 1.216992,0 1.418173,0.167738 1.418173,1.182394 0,0.89958 -0.127055,1.09224 -0.720304,1.09224 -0.391815,0 -0.417014,0.02656 -0.417014,0.439381 0,0.556162 -0.460128,0.925099 -0.876105,0.702474 -0.230473,-0.123344 -0.261212,-0.258246 -0.261212,-1.146296 V 34.171512 H 29.87659 29.307934 v 0.884578 c 0,1.491463 0.412882,1.391814 -5.71818,1.380079 -2.866987,-0.0055 -5.298002,-0.04246 -5.402256,-0.08213 z m 9.856748,-1.677055 v -0.505472 h -1.705974 -1.705979 v 0.505472 0.505473 h 1.705979 1.705974 z m -5.686587,-1.200501 v -0.56866 h -0.568656 -0.568659 v 0.56866 0.568657 h 0.568659 0.568656 z m 6.823904,-1.137316 v -0.568662 h -0.505473 -0.505472 v 0.568662 0.568656 h 0.505472 0.505473 z m 1.263689,-3.411952 v -1.705978 h -1.705978 -1.705974 v 1.705978 1.705973 h 1.705974 1.705978 z m -2.202616,0.290188 c -0.166204,-0.237288 -0.169701,-0.31671 -0.02364,-0.537067 0.228963,-0.345467 0.548869,-0.392273 0.84562,-0.123721 0.295251,0.267201 0.307955,0.47748 0.04475,0.740678 -0.279681,0.279682 -0.637997,0.246655 -0.866716,-0.07989 z m 4.830699,7.135341 c -0.443083,-0.101321 -0.431916,-0.961871 0.01433,-1.103502 0.339645,-0.107798 0.635865,0.04961 0.719353,0.382263 0.115353,0.459607 -0.260782,0.829375 -0.733667,0.721239 z M 4.3878241,36.151746 C 3.900048,35.929502 3.4156169,35.445809 3.1373329,34.903163 2.9288598,34.496647 2.89717,34.15224 2.8989726,32.312606 c 0.0019,-1.962953 0.023283,-2.159132 0.2854013,-2.621926 0.155827,-0.27512 0.5294182,-0.673177 0.8302024,-0.884578 l 0.5468797,-0.38436 h 2.2953413 2.2953409 l 0.5326872,0.361405 c 0.3425016,0.232374 0.6470436,0.590895 0.8529876,1.004168 0.301644,0.605323 0.320301,0.757529 0.320301,2.613072 0,1.794141 -0.02542,2.020067 -0.28433,2.526824 -0.156381,0.306088 -0.502676,0.730414 -0.7695457,0.942948 l -0.4852172,0.386432 -2.2948914,0.02536 c -1.5970725,0.01768 -2.3987073,-0.02197 -2.6363056,-0.130202 z m 4.584814,-1.184879 c 0.6521317,-0.385224 0.771941,-0.851026 0.7259894,-2.822548 L 9.6576103,30.38459 9.2448428,29.971827 8.8320753,29.559059 7.1153689,29.517457 c -1.8997816,-0.04604 -2.2640453,0.03768 -2.7677983,0.636363 -0.3008897,0.35759 -0.3133623,0.442776 -0.3133623,2.140187 0,1.873515 0.062363,2.138757 0.6121545,2.603514 0.3136842,0.265166 0.4540435,0.283741 2.1484567,0.284328 1.4826657,4.78e-4 1.8793199,-0.03864 2.1778165,-0.214965 z M 5.4480935,33.787482 C 5.203129,33.559264 5.171528,33.399774 5.171528,32.391685 c 0,-1.039903 0.026772,-1.164914 0.3101776,-1.448316 0.281184,-0.281184 0.4116552,-0.310181 1.3957982,-0.310181 0.9841431,0 1.1146148,0.02899 1.3957982,0.310181 0.2801519,0.28015 0.3101776,0.41306 0.3101776,1.37301 0,0.883896 -0.044093,1.118896 -0.261909,1.395798 -0.2491791,0.316781 -0.3186542,0.332963 -1.4294103,0.332963 -1.0002635,0 -1.207118,-0.03692 -1.4440668,-0.257658 z m 28.5607455,1.243333 c -0.174482,-0.174477 -0.20333,-1.592994 -0.03773,-1.854459 0.06053,-0.09557 0.265161,-0.173756 0.454727,-0.173756 0.189564,0 0.394193,0.07819 0.454726,0.173756 0.125679,0.198415 0.152621,1.505505 0.03721,1.806215 -0.09062,0.236156 -0.689282,0.267932 -0.90897,0.04825 z M 20.234662,30.481546 c -0.09202,-0.09202 -0.151643,-0.539174 -0.151643,-1.137317 v -0.985675 h -0.985675 c -1.039977,0 -1.288959,-0.109842 -1.288959,-0.568657 0,-0.458814 0.248982,-0.56866 1.288959,-0.56866 h 0.985675 v -0.417014 c 0,-0.480159 0.189589,-0.720304 0.568659,-0.720304 0.458814,0 0.568659,0.248985 0.568659,1.28896 v 0.985675 h 0.417017 c 0.480154,0 0.720298,0.189588 0.720298,0.568661 0,0.379067 -0.240144,0.568656 -0.720298,0.568656 -0.387532,0 -0.417017,0.02947 -0.417017,0.417019 0,0.480154 -0.189589,0.720298 -0.568659,0.720298 -0.145956,0 -0.333613,-0.06824 -0.417016,-0.151642 z m 2.250723,-0.03625 c -0.396142,-0.477318 0.344355,-1.217814 0.821677,-0.821672 0.226284,0.187797 0.245756,0.648455 0.03625,0.857942 -0.209491,0.209491 -0.67015,0.190018 -0.857947,-0.03625 z M 12.19215,28.077717 c -0.108195,-0.154465 -0.196719,-0.410366 -0.196719,-0.568656 0,-0.273664 -0.04612,-0.287805 -0.938738,-0.287805 -1.1892024,0 -1.5427472,-0.261952 -1.2050817,-0.892885 0.090692,-0.169462 0.2651077,-0.244433 0.5686587,-0.244433 0.385779,0 0.437844,-0.03854 0.437844,-0.324227 0,-0.455859 0.219493,-0.813089 0.499585,-0.813089 0.464693,0 0.639712,0.15743 0.71778,0.645637 l 0.07862,0.491679 h 0.997925 c 0.954932,0 1.003235,0.01395 1.121166,0.324152 0.155649,0.409387 0.159252,0.379999 -0.07534,0.614589 -0.109218,0.10922 -0.357847,0.198577 -0.552508,0.198577 -0.313544,0 -0.362899,0.05611 -0.432551,0.491684 -0.109641,0.685657 -0.658497,0.881817 -1.020646,0.364777 z m 10.364084,0.08228 C 22.41135,28.015113 22.357652,27.707587 22.357652,27.02268 v -0.938742 h -0.370078 c -0.41337,0 -0.767237,-0.283921 -0.767237,-0.615596 0,-0.440431 0.2658,-0.52172 1.705976,-0.52172 1.486668,0 1.705973,0.07578 1.705973,0.589489 0,0.323626 -0.332757,0.547827 -0.813084,0.547827 -0.32035,0 -0.324232,0.0118 -0.324232,0.985675 0,0.598145 -0.05962,1.045296 -0.151642,1.137318 -0.209884,0.209882 -0.550594,0.189564 -0.787094,-0.04695 z m 11.452605,0.04695 c -0.08341,-0.08341 -0.151642,-0.339302 -0.151642,-0.568661 0,-0.387531 -0.02947,-0.417015 -0.417019,-0.417015 -0.480155,0 -0.720299,-0.189588 -0.720299,-0.56866 0,-0.441692 0.253928,-0.568657 1.137318,-0.568657 0.947322,0 1.137316,0.12033 1.137316,0.720299 0,0.387531 0.02947,0.417018 0.417015,0.417018 0.480154,0 0.720303,0.189589 0.720303,0.568657 0,0.441697 -0.253933,0.568661 -1.137318,0.568661 -0.480202,0 -0.898367,-0.06434 -0.985674,-0.151642 z M 3.0485356,27.069625 c -0.1111509,-0.11115 -0.1516423,-1.155986 -0.1516423,-3.912983 0,-3.589389 0.011174,-3.767315 0.2444301,-3.892148 0.1344362,-0.07195 0.3009714,-0.130814 0.3700788,-0.130814 0.2476125,0 0.5228085,0.403856 0.5228085,0.767234 0,0.324949 0.045131,0.370083 0.3700788,0.370083 0.4665272,0 0.7672385,0.294315 0.7672385,0.750919 0,0.350348 0.00967,0.354604 1.0020379,0.441171 1.0685022,0.09321 1.3199532,0.239586 1.2507051,0.728075 -0.032358,0.22826 -0.1574979,0.317039 -0.5783594,0.410331 -0.4981911,0.110429 -0.5370664,0.148983 -0.5370664,0.532621 0,0.545491 -0.2654409,0.675202 -1.3817472,0.675202 H 4.0342107 v 1.461545 c 0,0.803852 -0.058866,1.571539 -0.1308146,1.705978 -0.1462252,0.273224 -0.6227063,0.32494 -0.8548605,0.09279 z m 2.2746348,0 c -0.1949237,-0.194923 -0.1949237,-0.639109 0,-0.834033 0.3544635,-0.354465 0.9856748,-0.08741 0.9856748,0.417015 0,0.338728 -0.2299327,0.56866 -0.5686589,0.56866 -0.1459556,0 -0.3336128,-0.06824 -0.4170159,-0.151642 z m 2.3215712,-0.04695 C 7.5067242,26.884659 7.4461624,26.584048 7.4461624,26.036999 c 0,-0.835078 0.1331471,-1.090381 0.5686586,-1.090381 0.4416941,0 0.5686586,0.253927 0.5686586,1.137316 0,0.480203 -0.064333,0.898367 -0.1516423,0.985675 -0.209882,0.209883 -0.5505944,0.189565 -0.7870957,-0.04695 z m 9.1779684,0.04695 c -0.380916,-0.380915 -0.04292,-1.043117 0.491932,-0.96378 0.409342,0.06071 0.575534,0.393104 0.394839,0.789685 -0.160579,0.352436 -0.618523,0.442342 -0.886771,0.174095 z m -2.346393,-1.252916 c -0.301644,-0.430654 -0.04033,-0.864337 0.523077,-0.868139 0.184545,-0.0014 0.338353,0.110692 0.430748,0.313477 0.118743,0.260614 0.103893,0.359404 -0.08548,0.568656 -0.296395,0.327514 -0.632946,0.322088 -0.868347,-0.014 z m 4.69053,0.130757 c -0.449829,-0.262005 -0.19329,-1.00083 0.347514,-1.00083 0.532157,0 0.751765,0.557055 0.370079,0.938739 -0.228457,0.228458 -0.405637,0.243789 -0.717593,0.06209 z m 12.63686,0 c -0.449831,-0.262005 -0.19329,-1.00083 0.347511,-1.00083 0.532157,0 0.751764,0.557055 0.370079,0.938739 -0.228457,0.228458 -0.405637,0.243789 -0.71759,0.06209 z M 8.7926179,24.715542 C 8.6775919,24.58844 8.5834796,24.332544 8.5834796,24.146881 c 0,-0.288994 -0.053246,-0.337562 -0.3700794,-0.337562 -0.6352111,0 -1.0144563,-0.648462 -0.5868127,-1.003371 0.20247,-0.168039 1.8208745,-0.206582 1.9762068,-0.04704 0.05499,0.05647 0.1182538,0.301704 0.140585,0.544962 0.03786,0.412429 0.074731,0.446554 0.5460757,0.505473 0.441843,0.05523 0.510601,0.107898 0.546198,0.418342 0.0646,0.563392 -0.162089,0.718975 -1.0475595,0.718975 -0.6013035,0 -0.8355496,-0.05438 -0.9954756,-0.231094 z m 3.3862981,-0.07635 c -0.279124,-0.425997 -0.06092,-0.829872 0.448358,-0.829872 0.509278,0 0.727481,0.403875 0.448358,0.829872 -0.110796,0.169095 -0.312557,0.307445 -0.448358,0.307445 -0.135801,0 -0.337562,-0.13835 -0.448358,-0.307445 z m 13.784814,0.05976 c -0.194202,-0.214592 -0.209672,-0.312708 -0.09052,-0.574221 0.195224,-0.428472 0.863778,-0.448727 1.025761,-0.03109 0.240149,0.619183 -0.493165,1.093793 -0.935244,0.605299 z m 6.977294,0.111198 C 32.798026,24.72686 32.719879,24.527264 32.719879,24.245334 V 23.809321 H 31.82699 c -1.388241,0 -1.381745,0.0083 -1.381745,-1.769157 0,-1.743285 0.01714,-1.769162 1.172608,-1.769162 0.768843,0 1.102026,0.236863 1.102026,0.783439 0,0.309723 0.03592,0.32438 1.002038,0.408651 1.078217,0.09406 1.22708,0.182314 1.293005,0.766622 0.03558,0.315555 0.106327,0.386274 0.421881,0.421881 0.490088,0.0553 0.695028,0.232244 0.695028,0.600097 0,0.416107 -0.350678,0.557629 -1.38175,0.557629 h -0.892884 v 0.370078 c 0,0.37891 -0.279954,0.770262 -0.546094,0.763398 -0.08192,-0.0019 -0.24845,-0.06181 -0.370079,-0.132647 z M 10.001652,22.475286 c -0.5366172,-0.375862 -0.2407079,-0.995977 0.438122,-0.91814 0.287842,0.033 0.363198,0.111399 0.397589,0.413599 0.02823,0.248067 -0.03273,0.427827 -0.182114,0.537067 -0.283598,0.207371 -0.313197,0.205899 -0.653597,-0.03252 z m 2.246516,-0.05602 c -0.139005,-0.139008 -0.252737,-0.394904 -0.252737,-0.56866 0,-0.252739 -0.06319,-0.315922 -0.315922,-0.315922 -0.296302,0 -0.821395,-0.38594 -0.821395,-0.603723 0,-0.293259 0.425275,-0.659961 0.765377,-0.659961 h 0.37194 v -1.705979 -1.705973 h -0.437844 c -0.416545,0 -0.699473,-0.24856 -0.699473,-0.614508 0,-0.247614 0.403859,-0.52281 0.767238,-0.52281 0.354367,0 0.370079,-0.02417 0.370079,-0.568661 0,-0.544513 -0.01571,-0.568656 -0.370079,-0.568656 -0.363379,0 -0.767238,-0.275196 -0.767238,-0.52281 0,-0.365947 0.282928,-0.614507 0.699473,-0.614507 h 0.437844 v -2.030205 c 0,-1.157812 0.05621,-2.1352389 0.130815,-2.2746352 0.08455,-0.1579816 0.264427,-0.2444292 0.508602,-0.2444292 0.478072,0 0.624269,0.3422593 0.624269,1.4614654 v 0.813169 h 0.505474 0.505474 V 9.4664852 c 0,-1.6398278 -0.01012,-1.7059763 -0.261044,-1.7059763 -0.46567,0 -0.749904,-0.238344 -0.749904,-0.6288308 0,-0.2019612 0.05719,-0.402545 0.12708,-0.4457419 0.06989,-0.043196 0.50877,-0.07854 0.975277,-0.07854 0.94217,0 1.172277,0.1566721 1.172277,0.7981605 0,0.3207285 0.04222,0.3549528 0.437844,0.3549528 0.481803,0 0.699473,0.2530268 0.699473,0.8130884 0,0.282559 0.05359,0.3242293 0.417016,0.3242293 0.592957,0 0.720301,0.192772 0.720301,1.0903802 0,1.0300706 -0.292261,1.3748846 -0.892887,1.0534396 -0.169459,-0.09069 -0.24443,-0.265108 -0.24443,-0.568659 0,-0.434681 -0.0041,-0.437844 -0.568659,-0.437844 h -0.568658 v 0.892888 c 0,1.317935 -0.05856,1.381746 -1.268131,1.381746 h -1.006503 v 0.568659 0.568659 h 1.582316 c 1.542686,0 1.585739,0.0075 1.718977,0.299937 0.0992,0.21772 0.09724,0.373594 -0.0071,0.568656 -0.128191,0.239523 -0.253195,0.268724 -1.150321,0.268724 h -1.006505 l -0.01399,1.737568 c -0.0077,0.955661 -0.004,1.862411 0.0081,2.014994 0.04009,0.502584 -0.215983,0.796707 -0.693623,0.796707 h -0.437846 v 1.200501 1.200501 h 0.437844 c 0.6897,0 0.905545,0.697774 0.313807,1.014461 -0.423376,0.226584 -1.484313,0.148409 -1.7626,-0.129878 z m 13.774175,0 c -0.345965,-0.345964 -0.354853,-1.488693 -0.01485,-1.908577 0.209453,-0.258666 0.277183,-0.275884 0.566578,-0.144024 0.246325,0.112229 0.348821,0.275659 0.409029,0.652162 0.0744,0.465257 0.113242,0.505229 0.52546,0.54072 0.578773,0.04983 0.783831,0.485189 0.406335,0.86269 -0.355387,0.355387 -1.536053,0.353534 -1.892558,-0.0029 z M 7.7270172,21.337969 c -0.197763,-0.138522 -0.2808548,-0.325455 -0.2808548,-0.631844 0,-0.408016 -0.025978,-0.435125 -0.4170164,-0.435125 -0.6732234,0 -0.9544492,-0.506013 -0.5217216,-0.93874 0.1625606,-0.162561 0.5363753,-0.198578 2.0609287,-0.198578 2.0873759,0 2.3399299,0.07805 2.2690099,0.701257 -0.03764,0.330809 -0.09946,0.380003 -0.547908,0.436061 -0.4718301,0.05898 -0.5080476,0.09262 -0.5441389,0.505472 -0.021263,0.243263 -0.1316494,0.513373 -0.2452975,0.600251 -0.2932223,0.224153 -1.4332209,0.199236 -1.7730014,-0.03873 z M 27.037735,20.026571 c -0.07195,-0.134438 -0.130814,-0.354556 -0.130814,-0.489157 0,-0.21432 -0.125641,-0.25569 -1.01116,-0.332935 -0.800409,-0.06982 -1.037453,-0.137333 -1.137317,-0.323932 -0.06938,-0.129648 -0.126158,-1.059958 -0.126158,-2.06735 0,-1.496621 0.0363,-1.867947 0.198583,-2.030207 0.432727,-0.432727 0.938735,-0.151499 0.938735,0.521722 0,0.409997 0.0096,0.417018 0.568661,0.417018 h 0.568656 v -0.568661 c 0,-0.544513 -0.01571,-0.568656 -0.370079,-0.568656 -0.363378,0 -0.767238,-0.275196 -0.767238,-0.52281 0,-0.356553 0.283435,-0.614507 0.675202,-0.614507 0.383638,0 0.422192,-0.03888 0.532621,-0.537067 l 0.11905,-0.537066 1.514994,-0.03586 c 1.769373,-0.04189 1.833774,-0.004 1.833774,1.079272 0,0.823926 -0.164285,1.168042 -0.557633,1.168042 -0.367853,0 -0.5448,-0.20494 -0.600098,-0.695028 -0.03921,-0.347669 -0.08731,-0.38233 -0.579837,-0.417965 l -0.537066,-0.03888 v 0.575926 c 0,0.553205 0.01466,0.575925 0.371936,0.575925 0.418681,0 0.76538,0.384809 0.76538,0.849512 0,0.233978 0.06921,0.287805 0.370079,0.287805 0.562901,0 0.767239,0.290686 0.767239,1.091467 0,0.838532 -0.162432,1.183168 -0.557633,1.183168 -0.367853,0 -0.5448,-0.204939 -0.600098,-0.695028 -0.03921,-0.347669 -0.08731,-0.38233 -0.579837,-0.417964 l -0.537066,-0.03888 V 17.4204 c 0,0.554682 0.0139,0.575927 0.376192,0.575927 0.492844,0 0.847816,0.486468 0.63929,0.876105 -0.100017,0.186876 -0.264398,0.261212 -0.57764,0.261212 -0.385783,0 -0.437842,0.03854 -0.437842,0.324228 0,0.52813 -0.221442,0.813089 -0.631845,0.813089 -0.236687,0 -0.417396,-0.08816 -0.501031,-0.244428 z m -0.130814,-2.598867 v -0.568656 h -0.505473 -0.505472 v 0.568656 0.568661 h 0.505472 0.505473 z m 2.485252,2.759049 c -0.04633,-0.04633 -0.08425,-0.246582 -0.08425,-0.444997 0,-0.263781 0.08636,-0.400106 0.321277,-0.50714 0.275143,-0.125363 0.360063,-0.107596 0.591386,0.123722 0.231317,0.231317 0.249084,0.316237 0.123721,0.591385 -0.107038,0.23491 -0.243364,0.321277 -0.50714,0.321277 -0.198415,0 -0.398664,-0.03792 -0.444998,-0.08425 z M 4.1872344,18.975721 C 4.1153714,18.888841 4.0373256,18.647161 4.0138,18.438654 3.978193,18.1231 3.9074746,18.05238 3.5919204,18.016774 3.1094298,17.962334 2.8968933,17.785197 2.8968933,17.437509 c 0,-0.388586 0.2364357,-0.578461 0.7203006,-0.578461 0.4099962,0 0.4170168,-0.0096 0.4170168,-0.568661 0,-0.559085 -0.00706,-0.568657 -0.4170168,-0.568657 -0.5999714,0 -0.7203006,-0.189994 -0.7203006,-1.137317 0,-0.883389 0.1269644,-1.137317 0.5686583,-1.137317 0.3790709,0 0.5686591,0.240144 0.5686591,0.720298 0,0.387531 0.029484,0.417019 0.4170159,0.417019 0.6193829,0 0.7203014,0.18059 0.7203014,1.28896 v 0.985675 H 5.7401863 6.3088452 V 15.153069 13.447096 H 5.8918286 c -0.480156,0 -0.7203006,-0.189589 -0.7203006,-0.568659 0,-0.491149 0.2325293,-0.568659 1.7059758,-0.568659 1.4734472,0 1.7059758,0.07751 1.7059758,0.568659 0,0.37907 -0.2401446,0.568659 -0.720301,0.568659 -0.4099958,0 -0.4170162,0.0095 -0.4170162,0.568656 0,0.559085 0.00702,0.568661 0.4170162,0.568661 0.4801564,0 0.720301,0.189589 0.720301,0.568656 0,0.379073 -0.2401446,0.568661 -0.720301,0.568661 -0.4099958,0 -0.4170162,0.0095 -0.4170162,0.568657 v 0.568661 h 1.5641341 c 1.7178075,0 1.8995865,0.0716 1.8253565,0.718975 l -0.04072,0.355159 -2.8117009,0.03401 -2.811701,0.03401 v 0.414597 c 0,0.228032 -0.068239,0.482839 -0.1516423,0.56624 -0.1978847,0.197884 -0.6666831,0.194331 -0.8326513,-0.0063 z m 26.4096526,0.0063 c -0.232158,-0.232154 -0.180438,-0.708635 0.09279,-0.854862 0.42276,-0.226255 1.583398,-0.16234 1.821064,0.10028 0.510521,0.564119 0.160124,0.906224 -0.928175,0.906224 -0.480202,0 -0.898367,-0.06433 -0.985675,-0.151642 z m 3.413332,-0.0063 c -0.07187,-0.08688 -0.149909,-0.32856 -0.173436,-0.537067 -0.03563,-0.315554 -0.106322,-0.386274 -0.42188,-0.42188 -0.48249,-0.05444 -0.695024,-0.231577 -0.695024,-0.579265 0,-0.388586 0.236433,-0.578461 0.720299,-0.578461 0.38753,0 0.417019,-0.02947 0.417019,-0.417019 0,-0.480155 0.189583,-0.720299 0.568656,-0.720299 0.379072,0 0.56866,0.240144 0.56866,0.720299 0,0.387531 0.02947,0.417019 0.417015,0.417019 0.599973,0 0.720303,0.189989 0.720303,1.137317 0,0.480202 -0.06434,0.898367 -0.151643,0.985675 -0.205698,0.205699 -1.798826,0.200588 -1.969969,-0.0063 z M 9.844611,15.46422 c -0.1909676,-0.356825 -0.04021,-0.737889 0.328539,-0.830441 0.376175,-0.09441 0.684964,0.13527 0.684964,0.50949 0,0.572849 -0.751354,0.810782 -1.013503,0.320951 z m 23.026911,0.105868 c -0.236835,-0.236834 -0.178771,-0.709528 0.105867,-0.861863 0.541972,-0.290055 1.046045,0.214023 0.755991,0.755995 -0.15233,0.284639 -0.625029,0.342702 -0.861858,0.105868 z M 8.7012934,14.315689 c -0.2030192,-0.379345 0.035166,-0.868593 0.4228619,-0.868593 0.3646369,0 0.5966415,0.221121 0.5966415,0.568656 0,0.572678 -0.7547096,0.794711 -1.0195034,0.299937 z m 11.5333686,0.117082 c -0.09202,-0.09202 -0.151643,-0.539173 -0.151643,-1.137317 v -0.985676 h -0.985675 c -1.039977,0 -1.288959,-0.109845 -1.288959,-0.568658 0,-0.379071 0.240145,-0.568659 0.720301,-0.568659 h 0.417016 v -0.985675 c 0,-1.0399785 0.109845,-1.2889594 0.568659,-1.2889594 0.458814,0 0.568658,0.2489809 0.568658,1.2889594 v 0.985675 h 0.568659 0.568659 v -0.985675 c 0,-1.1083689 0.100918,-1.2889594 0.720301,-1.2889594 h 0.417014 V 7.9121517 c 0,-0.5981451 0.05962,-1.0452955 0.151643,-1.1373177 0.219688,-0.2196865 0.818352,-0.1879109 0.908969,0.048246 0.04217,0.1099384 0.07671,0.8187608 0.07671,1.5751612 0,1.5009799 -0.06752,1.6369028 -0.813085,1.6369028 -0.300027,0 -0.324232,0.04245 -0.324232,0.568658 v 0.568659 h 0.56866 c 0.526207,0 0.568657,-0.0242 0.568657,-0.324229 0,-0.692409 0.571321,-1.0757992 0.985674,-0.661446 0.199734,0.199729 0.199734,1.77162 0,1.97135 -0.09202,0.09202 -0.539173,0.151642 -1.137316,0.151642 h -0.985675 v 0.417016 c 0,0.527317 -0.192985,0.720302 -0.720299,0.720302 -0.387532,0 -0.417017,0.02947 -0.417017,0.417014 0,0.480159 -0.189588,0.720303 -0.568659,0.720303 -0.145956,0 -0.333613,-0.06824 -0.417016,-0.151642 z m 3.378121,-0.117082 c -0.203015,-0.379345 0.03515,-0.868593 0.422864,-0.868593 0.364639,0 0.596639,0.221121 0.596639,0.568656 0,0.572678 -0.75471,0.794711 -1.019503,0.299937 z m 11.533373,0.117082 c -0.08341,-0.08341 -0.151643,-0.339302 -0.151643,-0.568661 v -0.417014 h -0.985674 c -1.03998,0 -1.28896,-0.109846 -1.28896,-0.568659 0,-0.491149 0.232526,-0.568659 1.705974,-0.568659 0.922491,0 1.454605,0.05191 1.554335,0.151643 0.199729,0.199729 0.199729,1.771621 0,1.97135 -0.0834,0.0834 -0.271064,0.151642 -0.417018,0.151642 -0.145954,0 -0.333614,-0.06824 -0.417014,-0.151642 z m -25.3075453,-1.2544 c -0.2030191,-0.379342 0.035167,-0.868593 0.4228623,-0.868593 0.364636,0 0.596641,0.221123 0.596641,0.568659 0,0.572676 -0.75471,0.794709 -1.0195033,0.299934 z m 6.9840993,0.117083 c -0.380916,-0.380917 -0.04292,-1.04312 0.491932,-0.963784 0.409342,0.06072 0.575534,0.393109 0.394839,0.789689 -0.160579,0.352436 -0.618523,0.442342 -0.886771,0.174095 z m 9.145476,-1.184255 c -0.158329,-0.15833 -0.198582,-0.504107 -0.198582,-1.705976 V 8.8978266 h -0.359518 c -0.199275,0 -0.461677,-0.1128782 -0.588712,-0.2532508 -0.189369,-0.2092549 -0.204218,-0.3080444 -0.08547,-0.5686586 0.113625,-0.2493797 0.236863,-0.3154083 0.588707,-0.3154083 0.393463,0 0.444997,-0.03755 0.444997,-0.324229 0,-0.5320108 0.22104,-0.8130882 0.63942,-0.8130882 0.553301,0 0.624269,0.3281448 0.624269,2.8865863 0,1.821304 -0.03664,2.290612 -0.19672,2.519145 -0.230243,0.328715 -0.588047,0.362616 -0.868387,0.08228 z M 4.8468422,11.060266 C 4.2222802,10.900342 3.6741841,10.518481 3.3047206,9.9858656 2.9642331,9.4950203 2.9596709,9.4614693 2.9263158,7.2031062 2.8940958,5.0215835 2.9057288,4.8942678 3.1809782,4.4154448 3.5065529,3.8490784 4.1016354,3.4009856 4.7775571,3.2132325 c 0.6023703,-0.1673219 3.6117955,-0.163348 4.2200745,0.00555 0.6211909,0.1725058 1.3353854,0.8074691 1.6248074,1.444556 0.190799,0.4199946 0.230598,0.8452666 0.2329,2.488637 0.0015,1.0975308 -0.05708,2.1408375 -0.131345,2.3378201 -0.07376,0.1956558 -0.315445,0.5454044 -0.537066,0.7772184 -0.7272998,0.76075 -0.9704228,0.829348 -3.0566869,0.862461 -1.0425412,0.01655 -2.0700701,-0.0146 -2.2833989,-0.06923 z M 8.8004456,9.8240792 C 9.5902312,9.4493016 9.7198521,9.0692879 9.7198521,7.1286328 c 0,-1.9465077 -0.1554407,-2.3944094 -0.9455277,-2.7245289 -0.5982291,-0.2499558 -3.1954124,-0.2499558 -3.7936415,0 C 4.182811,4.7374756 4.035221,5.1746707 4.0346825,7.2063673 4.0342535,8.8444867 4.0565465,9.0184694 4.3078222,9.3379184 4.749677,9.8996463 5.2105135,10.02472 6.8584059,10.030164 8.0032144,10.033934 8.46043,9.9854258 8.8004456,9.8240792 Z M 5.424265,8.5186874 C 5.2094374,8.3038592 5.171528,8.0974585 5.171528,7.1426322 c 0,-1.6177683 0.1013754,-1.7199747 1.7059758,-1.7199747 1.600342,0 1.7059758,0.1051358 1.7059758,1.6979472 0,0.9877744 -0.030147,1.1296109 -0.2924739,1.3760547 C 8.0345383,8.7375983 7.85563,8.7714242 6.8377673,8.7714242 c -0.9922739,0 -1.1974512,-0.036686 -1.4135023,-0.2527368 z M 30.129322,11.061664 C 29.244391,10.828957 28.761275,10.447163 28.350614,9.6560046 28.053346,9.0832949 27.935724,6.170126 28.167974,5.1323331 28.36924,4.2329724 29.114059,3.4482154 29.971232,3.2323767 c 0.756956,-0.1906048 3.476645,-0.1906048 4.233605,0 0.736246,0.1853884 1.55341,0.9692866 1.771578,1.6994674 0.189818,0.635286 0.206354,3.7142668 0.0235,4.3727225 -0.159288,0.5735498 -0.609157,1.1267224 -1.226693,1.5083794 -0.420304,0.259764 -0.640016,0.289261 -2.364072,0.317394 -1.045391,0.01706 -2.071305,-0.01385 -2.279812,-0.06868 z m 3.95017,-1.2786084 c 0.773557,-0.4716419 0.914043,-0.8794757 0.914353,-2.6544228 4.49e-4,-2.5886359 -0.310067,-2.9060846 -2.842627,-2.9060846 -1.68098,0 -2.166412,0.1465924 -2.644756,0.7986777 -0.234661,0.3198943 -0.261723,0.5360335 -0.261723,2.0906389 0,1.9268211 0.0899,2.2065951 0.859857,2.6760686 0.343414,0.2093935 0.640155,0.2462326 1.983439,0.2462326 1.353776,0 1.638486,-0.035902 1.991457,-0.2511104 z M 30.64196,8.4905694 C 30.33524,8.0526627 30.366596,6.1164385 30.6868,5.7209857 c 0.223366,-0.275847 0.332543,-0.2983282 1.448726,-0.2983282 1.57698,0 1.643224,0.060444 1.70146,1.5524498 0.03806,0.9754168 0.01175,1.1411606 -0.23032,1.4488655 -0.265161,0.3370973 -0.310477,0.3474514 -1.520654,0.3474514 -1.145719,0 -1.263374,-0.022882 -1.444065,-0.2808548 z M 18.187491,7.6683667 C 17.872886,7.548608 17.812342,7.3561856 17.81032,6.4696438 17.80798,5.4381213 17.90572,5.3594722 19.190132,5.3594722 h 0.892887 V 4.9893934 c 0,-0.5629018 0.290687,-0.7672378 1.091467,-0.7672378 1.091164,0 1.183166,0.09394 1.183166,1.2080752 0,0.8996718 -0.016,0.9525364 -0.324146,1.0696869 -0.178279,0.067782 -0.690076,0.1232405 -1.137318,0.1232405 h -0.813169 v 0.3719402 c 0,0.4979913 -0.405432,0.7681023 -1.133843,0.7554007 -0.314673,-0.00549 -0.657431,-0.042445 -0.761685,-0.082132 z M 12.248168,6.3704215 C 12.029129,6.1513826 11.995431,5.9491926 11.995431,4.8539984 c 0,-1.8377212 -0.114325,-1.7691601 2.950076,-1.7691601 2.207802,0 2.46486,0.022387 2.65374,0.2310947 0.419502,0.4635454 0.169806,0.9062226 -0.511163,0.9062226 -0.389464,0 -0.417016,0.0282 -0.417016,0.4268169 0,0.2347489 -0.08119,0.4941996 -0.180425,0.576556 -0.183892,0.1526177 -1.740144,0.2114849 -1.962233,0.074226 -0.0672,-0.04153 -0.159152,-0.2725501 -0.20433,-0.5133719 -0.077,-0.4104173 -0.112939,-0.4378573 -0.573552,-0.4378573 h -0.491411 v 0.8845804 c 0,0.7160885 -0.04814,0.9327206 -0.252737,1.1373173 -0.139006,0.1390052 -0.309603,0.2527368 -0.379106,0.2527368 -0.0695,0 -0.2401,-0.1137316 -0.379106,-0.2527368 z m 11.527658,0.056019 c -0.34875,-0.2442731 -0.359233,-0.5777572 -0.02761,-0.8778794 0.209257,-0.1893717 0.308046,-0.2042225 0.568661,-0.085478 0.399758,0.1821418 0.444391,0.8294164 0.07098,1.0292618 -0.307263,0.1644423 -0.278793,0.1675081 -0.612033,-0.065904 z M 25.895388,5.105642 c -0.113586,-0.2122431 -0.101483,-0.3330917 0.0577,-0.5760381 0.371201,-0.5665219 1.011099,-0.2837804 0.931375,0.4115299 -0.03396,0.2962641 -0.107434,0.3616182 -0.443029,0.3941279 -0.3051,0.029556 -0.437031,-0.025924 -0.546046,-0.2296197 z"
       id="path1023"
       sodipodi:nodetypes="cssscccccssscssscssscssscccsssssssccssssccscsscssssssscccssssssccssscsscssssssssssssssscccccsssssscccscssccccccccccccccccccccccccccccccccccccccssccssssssscsscccsssssccsscscccssssccccssscsssccssscccsscssscssscsssssscsccccssssssscscssscccscsssssssccsssssssssssssssssssssscssssssssscssssccscssccssccsssssssssscssscssssccssssscssccsscssssccssscscsscscssssssscccssssssscsssscccssssssssssssscsscccsscscccscccsssscssssscccsssscssscccsssscsscsssssccsscccsssssscccssssssccccccccccccssscscccssssssssssscccccsssssssssscsscccssccssssssccsssssssssccscsssssssssssscssscssscccsscsscssscssssscsssssssssssscssssssssssssssssscssssssscsscsscscsccsccccsssccccssssssscssssscssccssssssssccsccsccccscssssscsscssscsssscscsssssscsssssscss" /><path
       d="m 18.300387,23.491852 c -0.345032,-0.416082 -3.185543,-5.487364 -3.185543,-5.687279 0,-0.125612 0.0862,-0.261465 0.191563,-0.301895 0.202603,-0.07775 3.292233,1.616742 3.567901,1.956793 0.216901,0.267559 0.222462,3.822556 0.0063,4.0387 -0.1953,0.195301 -0.415039,0.192904 -0.580242,-0.0063 z m 0.226408,-2.28965 v -1.436667 l -1.337069,-0.773791 c -0.73539,-0.425587 -1.318264,-0.725877 -1.295278,-0.667317 0.150509,0.383471 2.46113,4.309612 2.53757,4.311766 0.05213,0.0014 0.09478,-0.643828 0.09478,-1.433991 z m 1.671754,2.299656 c -0.219539,-0.21954 -0.21723,-3.770357 0.0026,-4.044479 0.08688,-0.108318 0.872988,-0.604601 1.746913,-1.102857 1.570646,-0.895478 2.014583,-1.013745 2.010991,-0.535735 -0.0024,0.327572 -3.198886,5.761314 -3.413021,5.80194 -0.1057,0.02006 -0.262081,-0.03343 -0.347513,-0.118869 z m 0.60288,-0.958064 c 0,-0.05229 0.540226,-1.027132 1.200501,-2.166316 0.660277,-1.13919 1.200501,-2.088456 1.200501,-2.109486 0,-0.02102 -0.597089,0.307316 -1.326868,0.729655 l -1.326871,0.767888 v 1.436667 c 0,0.873531 0.04953,1.436661 0.126368,1.436661 0.0695,0 0.126369,-0.04279 0.126369,-0.09507 z m -3.124061,-5.128581 c -0.849449,-0.497874 -1.57547,-0.983516 -1.613379,-1.079201 -0.188755,-0.476444 0.108634,-0.521053 3.473754,-0.521053 3.365076,0 3.660323,0.04428 3.47509,0.521053 -0.09833,0.253092 -3.191074,2.008303 -3.515927,1.995374 -0.151296,-0.006 -0.970088,-0.418299 -1.819538,-0.916173 z m 3.179198,-0.304975 1.271736,-0.726618 -1.29528,-0.03601 c -0.712404,-0.01982 -1.878154,-0.01982 -2.590556,0 l -1.295278,0.03601 1.263686,0.725419 c 0.695027,0.398979 1.288496,0.725959 1.318822,0.726622 0.03032,4.78e-4 0.627418,-0.32578 1.32687,-0.725423 z"
       style="fill:#000000;stroke:#000000;stroke-width:0.526;stroke-dasharray:none;stroke-opacity:1"
       id="path1061" /></g></svg>
