<?xml version="1.0" encoding="UTF-8" standalone="no"?>
<!-- Created with Inkscape (http://www.inkscape.org/) -->

<svg
   version="1.1"
   id="svg541"
   width="100"
   height="100"
   viewBox="0 0 100 100"
   sodipodi:docname="tetra_logo2.svg"
   inkscape:version="1.2.2 (b0a8486541, 2022-12-01)"
   xmlns:inkscape="http://www.inkscape.org/namespaces/inkscape"
   xmlns:sodipodi="http://sodipodi.sourceforge.net/DTD/sodipodi-0.dtd"
   xmlns="http://www.w3.org/2000/svg"
   xmlns:svg="http://www.w3.org/2000/svg">
  <defs
     id="defs545" />
  <sodipodi:namedview
     id="namedview543"
     pagecolor="#ffffff"
     bordercolor="#000000"
     borderopacity="0.25"
     inkscape:showpageshadow="2"
     inkscape:pageopacity="0.0"
     inkscape:pagecheckerboard="0"
     inkscape:deskcolor="#d1d1d1"
     showgrid="false"
     inkscape:zoom="7.19"
     inkscape:cx="49.930459"
     inkscape:cy="50.139082"
     inkscape:window-width="1920"
     inkscape:window-height="904"
     inkscape:window-x="0"
     inkscape:window-y="31"
     inkscape:window-maximized="1"
     inkscape:current-layer="g547" />
  <g
     inkscape:groupmode="layer"
     inkscape:label="Image"
     id="g547">
    <path
       style="fill:#000000"
       d="m 38.596594,86.832754 c -0.85132,-0.9625 -8.3754,-13.577502 -16.720165,-28.033337 L 6.7041275,32.51608 l 0.315183,-2.216663 0.315182,-2.216663 2.7149375,-0.313039 2.714937,-0.313039 15.782577,9.154504 c 19.15625,11.111369 17.25391,7.790663 17.27224,30.150145 l 0.0153,18.678572 -1.57143,1.571428 c -2.04182,2.041822 -3.75016,1.987986 -5.66647,-0.178571 z m 0.51723,-37.333286 C 38.208634,48.637704 15.905869,35.582754 15.338835,35.582754 c -0.209168,0 5.104286,9.530695 11.807679,21.179323 l 12.18798,21.179323 0.27933,-13.849992 0.27933,-13.849993 z m 18.2921,37.511857 -1.57143,-1.571428 0.0153,-18.678572 c 0.0183,-22.371137 -1.87878,-19.07901 17.34436,-30.098129 l 15.841073,-9.080442 h 2.38058 2.38059 l 0.59884,2.385975 0.59884,2.385975 -15.1903,26.364025 C 61.331904,90.778178 61.261594,90.866998 57.405924,87.011325 Z m 16.87869,-29.950584 c 13.509013,-23.401546 13.555863,-22.373672 -0.648,-14.215748 l -11.30212,6.491325 -0.27865,14.318533 c -0.15326,7.875193 -0.047,14.086911 0.23607,13.803819 0.28309,-0.283092 5.6798,-9.46216 11.9927,-20.397929 z M 34.309134,27.956953 C 14.73733,16.68306 13.775891,15.784213 17.405922,12.154183 l 1.571428,-1.571429 h 31.773584 31.773583 l 1.65499,1.828741 c 3.40313,3.760411 1.99333,5.0273 -18.392683,16.528231 -16.47349,9.293646 -13.47501,9.387262 -31.47769,-0.982773 z m 29.05785,-4.124199 11.67835,-6.75 -12.10542,-0.280779 c -6.65798,-0.154428 -17.52482,-0.154428 -24.14854,0 l -12.04311,0.280779 11.29311,6.665601 c 13.81787,8.155799 11.37516,8.147659 25.32561,0.0844 z"
       id="path672" />
  </g>
</svg>
