<?xml version="1.0" encoding="UTF-8" standalone="no"?>
<svg
   id="Layer_1"
   data-name="Layer 1"
   viewBox="0 0 100 100"
   version="1.1"
   sodipodi:docname="tetra_logo.svg"
   inkscape:version="1.2.2 (b0a8486541, 2022-12-01)"
   xmlns:inkscape="http://www.inkscape.org/namespaces/inkscape"
   xmlns:sodipodi="http://sodipodi.sourceforge.net/DTD/sodipodi-0.dtd"
   xmlns="http://www.w3.org/2000/svg"
   xmlns:svg="http://www.w3.org/2000/svg">
  <sodipodi:namedview
     id="namedview452"
     pagecolor="#ffffff"
     bordercolor="#000000"
     borderopacity="0.25"
     inkscape:showpageshadow="2"
     inkscape:pageopacity="0.0"
     inkscape:pagecheckerboard="0"
     inkscape:deskcolor="#d1d1d1"
     showgrid="false"
     inkscape:zoom="7.19"
     inkscape:cx="50.069541"
     inkscape:cy="44.158554"
     inkscape:window-width="1920"
     inkscape:window-height="904"
     inkscape:window-x="0"
     inkscape:window-y="31"
     inkscape:window-maximized="1"
     inkscape:current-layer="Layer_1" />
  <defs
     id="defs443">
    <style
       id="style441">.cls-1{fill:none;stroke:#000;stroke-miterlimit:10;stroke-width:5.67px;}</style>
  </defs>
  <path
     id="path445"
     style="color:#000000;fill:#000000;stroke-miterlimit:10;-inkscape-stroke:none"
     d="m 18.802734,11.164062 -0.289062,0.0625 c -1.728486,0.365555 -3.034582,1.800837 -3.289063,3.542969 -0.287414,1.773935 0.60011,3.566864 2.214844,4.369141 l -0.160156,-0.08398 29.820312,17.251953 c 1.868193,1.164851 4.278986,1.079835 6.0625,-0.210938 l -0.246093,0.160156 29.460937,-16.978515 c 1.866352,-1.036863 2.817076,-3.755599 2.029297,-5.59375 -0.445235,-1.038882 -1.461065,-1.882616 -2.310547,-2.201172 -0.849482,-0.318556 -1.511094,-0.31836 -1.996094,-0.31836 z m 5.964844,5.671876 H 75.259766 L 49.964844,31.414062 Z m 65.541016,10.59375 c -1.279064,-0.04919 -2.088831,0.432595 -2.767578,0.839843 l -30.035157,17.261719 -0.002,0.002 c -1.63579,0.924844 -2.557241,2.769254 -2.314453,4.632813 l -0.02539,-0.365235 v 34.5 c 0,0.485 -0.0111,1.137656 0.333985,2.019531 0.333425,0.852088 1.310512,1.872435 2.417969,2.240235 2.013136,0.715653 4.314068,-0.145136 5.302734,-2.058594 l -0.0625,0.113281 30.203125,-52.404296 0.002,-0.0039 c 0.171148,-0.299507 0.5452,-0.772039 0.775391,-1.769531 0.23019,-0.997492 -0.12171,-2.59219 -0.884766,-3.482422 -0.553233,-0.645438 -1.664297,-1.476196 -2.943359,-1.52539 z m -80.107422,0.05469 c -0.9502565,-0.04525 -1.9153445,0.19867 -2.7460939,0.738281 l -0.25,0.16211 -0.2089843,0.210937 c -0.8011603,0.80116 -1.2524865,2.108649 -1.2167969,3.072266 0.03569,0.963616 0.3206982,1.593998 0.515625,2.048828 l 0.066406,0.15625 4.0078129,6.935547 26.455078,45.773437 c 0.604647,1.083563 1.670691,1.816708 2.882812,2.058594 1.132571,0.265911 2.694454,0.145825 3.767578,-0.833984 1.116307,-1.019237 1.361329,-2.333752 1.361329,-3.40625 V 49.923828 C 44.946669,48.259565 44.156074,46.63474 42.738281,45.71875 l -0.05859,-0.03711 -30.160157,-17.435547 0.34375,0.234375 c -0.775715,-0.616111 -1.711853,-0.950844 -2.662109,-0.996094 z m 3.707031,8.115234 25.255859,14.597657 v 29.101562 z m 72.03125,0.128907 -25.103515,43.55664 V 50.15625 Z" />
</svg>
